<svg width="61" height="201" viewBox="0 0 61 201" fill="none" xmlns="http://www.w3.org/2000/svg">
<path d="M24.552 0L21.1131 20.0873H26.2715V40H12V20.0873L17.1584 0H24.552ZM48.2805 0L44.8416 20.0873H50V40H35.7285V20.0873L40.8869 0H48.2805Z" fill="#F1F1F2"/>
<path d="M43 179.22V198.192H17.44V193.26H38.644V183.288H17.44V178.356H38.644V174.54H49.372V179.22H43ZM36.124 167.014L24.136 158.086V154.522H43V159.31H31.336L43 168.13V171.802H24.136V167.014H36.124ZM43 140.934L43 145.722H28.312V151.626H24.136V135.066H28.312V140.934H43ZM43.36 127.457C43.36 128.369 43.216 129.221 42.928 130.013C42.616 130.805 42.196 131.489 41.668 132.065C41.116 132.641 40.48 133.097 39.76 133.433C39.04 133.745 38.248 133.901 37.384 133.901C36.496 133.901 35.68 133.709 34.936 133.325C34.168 132.917 33.52 132.365 32.992 131.669C32.464 130.949 32.056 130.097 31.768 129.113C31.456 128.129 31.3 127.049 31.3 125.873C31.3 125.033 31.372 124.217 31.516 123.425C31.66 122.609 31.864 121.889 32.128 121.265H31.048C29.8 121.265 28.84 121.625 28.168 122.345C27.496 123.041 27.16 124.085 27.16 125.477C27.16 126.485 27.34 127.469 27.7 128.429C28.06 129.389 28.588 130.373 29.284 131.381L26.224 132.857C24.616 130.433 23.812 127.817 23.812 125.009C23.812 122.297 24.484 120.197 25.828 118.709C27.148 117.197 29.068 116.441 31.588 116.441H37.456C37.96 116.441 38.32 116.357 38.536 116.189C38.752 115.997 38.872 115.697 38.896 115.289H43C43.168 116.105 43.252 116.813 43.252 117.413C43.252 118.325 43.048 119.033 42.64 119.537C42.232 120.017 41.692 120.317 41.02 120.437L39.976 120.545C41.08 121.385 41.92 122.405 42.496 123.605C43.072 124.805 43.36 126.089 43.36 127.457ZM39.832 126.089C39.832 125.273 39.688 124.505 39.4 123.785C39.112 123.041 38.728 122.465 38.248 122.057C37.84 121.529 37.384 121.265 36.88 121.265H34.72C34.504 121.841 34.336 122.465 34.216 123.137C34.072 123.809 34 124.457 34 125.081C34 126.329 34.288 127.349 34.864 128.141C35.416 128.933 36.124 129.329 36.988 129.329C37.804 129.329 38.488 129.017 39.04 128.393C39.568 127.769 39.832 127.001 39.832 126.089ZM43 103.282V108.07H28.312L28.312 113.974H24.136L24.136 97.4139H28.312V103.282H43ZM24.136 94.5289V89.7409H30.112V86.5729C30.112 85.5409 30.256 84.5929 30.544 83.7289C30.808 82.8409 31.216 82.0729 31.768 81.4249C32.296 80.7769 32.968 80.2729 33.784 79.9129C34.576 79.5289 35.488 79.3369 36.52 79.3369C37.576 79.3369 38.512 79.5169 39.328 79.8769C40.12 80.2369 40.792 80.7409 41.344 81.3889C41.896 82.0129 42.316 82.7569 42.604 83.6209C42.868 84.4609 43 85.3849 43 86.3929V94.5289H24.136ZM24.136 77.2849V72.5329H43V77.2849H24.136ZM39.22 86.8969C39.22 86.0809 39.004 85.4329 38.572 84.9529C38.116 84.4729 37.456 84.2329 36.592 84.2329C35.728 84.2329 35.068 84.4849 34.612 84.9889C34.132 85.4929 33.892 86.1289 33.892 86.8969V89.7409H39.22V86.8969Z" fill="#F1F1F2"/>
</svg>
